<svg width="217" height="106" viewBox="0 0 217 106" fill="none" xmlns="http://www.w3.org/2000/svg">
<path d="M35.3915 6.35749C44.067 -11.7727 50.2312 31.1227 68.1777 35.2205L57.9879 63.8693L19.7705 50.276C17.4177 45.4132 22.3711 33.5681 35.3915 6.35749Z" fill="white"/>
<path d="M14.1966 65.9468C9.9225 85.586 41.3418 56.115 57.8452 64.2704L68.0351 35.6216L29.8177 22.0284C21.8278 32.6472 18.9458 44.1243 14.1966 65.9468Z" fill="white"/>
<rect x="68.1777" y="35.2206" width="31.2583" height="30.8326" transform="rotate(19.5796 68.1777 35.2206)" fill="white"/>
<rect x="63.0776" y="32.1384" width="11.6763" height="33.1221" rx="5.83813" transform="rotate(19.5796 63.0776 32.1384)" fill="#FF1111"/>
<path d="M51.8373 20.6063C52.0311 20.3473 52.3748 20.2404 52.6796 20.3489C53.1417 20.5132 53.3148 21.0794 53.0337 21.4814C41.7784 37.5801 38.6348 47.566 37.3824 65.4795C37.3484 65.9665 36.8592 66.2942 36.3992 66.1306C36.0933 66.0218 35.8951 65.7198 35.912 65.3956C36.8996 46.4853 40.0314 36.3845 51.8373 20.6063Z" fill="#FF1111"/>
<path d="M55.9498 26.5972C56.1449 26.3672 56.4658 26.2785 56.7501 26.3795C57.2209 26.547 57.3833 27.1328 57.0752 27.5262C47.1235 40.2352 44.6135 48.4095 44.3939 63.1735C44.3865 63.6705 43.8935 64.0199 43.4252 63.8533C43.1396 63.7517 42.9475 63.4777 42.9454 63.1747C42.8349 47.4137 45.325 39.1245 55.9498 26.5972Z" fill="#FF1111"/>
<path d="M97.6284 45.6957L110.431 60.5123L106.569 71.3702L87.2959 74.7455L97.6284 45.6957Z" fill="white"/>
<path d="M73.2401 58.9143L86.3447 59.8198L83.7876 96.828L66.651 94.7701L72.8053 89.9558L73.2401 58.9143Z" fill="white"/>
<path d="M14.0679 8.09644L23.8735 12.074L10.8635 39.8725L4.01839 37.0958L14.0679 8.09644Z" fill="#FF1111"/>
<circle cx="4.82671" cy="44.8724" r="3.67924" transform="rotate(22.0795 4.82671 44.8724)" fill="#FF1111"/>
<path d="M71.0286 57.8154L68.6706 57.2395L71.4741 51.7713C71.9625 50.9224 72.8692 48.489 74.5787 48.9066L79.3241 50.0656C80.3256 50.1852 81.1268 51.3804 80.8965 52.3235L80.0605 54.212C79.6107 55.4139 78.8663 56.5439 77.2157 56.1407L72.4113 54.9673L71.0286 57.8154Z" fill="#FF1111"/>
<path d="M77.3212 53.9177L73.4895 52.9819C74.3629 51.1963 74.095 51.0141 74.8927 51.2008C75.9169 51.4405 78.0145 51.9459 78.2234 52.0142C78.5993 52.1373 78.526 52.1818 78.4317 52.4399L77.8353 53.731C77.6965 53.9157 77.616 53.9897 77.3212 53.9177Z" fill="white"/>
<path d="M80.4901 60.1263L78.2206 59.572L80.478 55.1885C81.0017 54.0671 82.2106 53.0818 83.3673 53.3331L85.6369 53.8874L84.7052 55.7837L83.3789 55.4598C83.1136 55.395 82.9885 55.3956 82.777 55.75L80.4901 60.1263Z" fill="#FF1111"/>
<path d="M92.9789 58.8662C92.4859 60.8847 89.7254 62.3817 87.4464 61.8251C85.1674 61.2685 83.9228 60.0114 84.4158 57.9929C85.3132 55.2137 88.1992 54.4819 90.4782 55.0385C92.7571 55.5951 93.4719 56.8477 92.9789 58.8662Z" fill="#FF1111"/>
<path d="M90.7692 58.5765C90.5306 59.5532 89.3228 60.5344 88.0259 60.2177C87.3259 60.0467 86.5357 59.5414 86.838 58.3035C87.09 57.2719 88.2026 56.1693 89.6173 56.5149C90.3173 56.6858 91.1363 57.0733 90.7692 58.5765Z" fill="white"/>
<path d="M127.043 78.2518H117.031L122.913 53.5959C124.04 49.716 125.291 39.0777 132.55 39.0777H152.701C156.831 38.5771 161.211 42.5821 161.211 46.5871L159.709 54.9726C159.084 60.2292 157.206 65.4858 150.197 65.4858H129.797L127.043 78.2518Z" fill="white"/>
<path d="M148.446 56.4747H132.175C133.927 48.4646 132.676 47.9965 136.055 47.964C140.394 47.9223 149.294 47.8944 150.198 47.964C151.825 48.0891 151.575 48.3395 151.449 49.4659L150.323 55.2231C149.948 56.0992 149.697 56.4747 148.446 56.4747Z" fill="#202020"/>
<path d="M167.219 78.2519H157.582L162.338 58.4771C163.339 53.4708 167.219 48.3394 172.1 48.2142H181.737L179.86 56.7249H174.228C173.102 56.7249 172.601 56.8501 172.1 58.4771L167.219 78.2519Z" fill="white"/>
<path d="M216.031 60.98C216.031 69.5512 206.434 78.2517 196.757 78.2517C187.08 78.2517 180.862 74.4323 180.862 65.8612C181.738 53.8461 192.587 48.0889 202.264 48.0889C211.941 48.0889 216.031 52.4089 216.031 60.98Z" fill="white"/>
<path d="M206.892 61.9815C206.892 66.1288 203.012 71.2431 197.505 71.2431C194.533 71.2431 190.872 69.9915 190.872 64.7349C190.872 60.3544 194.251 54.8475 200.259 54.8475C203.231 54.8475 206.892 55.5985 206.892 61.9815Z" fill="#202020"/>
</svg>
